<svg xmlns="http://www.w3.org/2000/svg" width="64" height="64" id="bitcoin"><path fill="#ED6C0C" d="M29.9 25.2 28.5 31c1.8.4 7.3 2.2 8.1-1.1.8-3.4-4.9-4.2-6.7-4.7z"></path><path fill="#E05A00" d="M36.6 30c.9-3.4-4.9-4.3-6.7-4.7L28.5 31"></path><path fill="#ED6C0C" d="m31.9 17.3-1.3 5.3c1.5.4 6.1 1.9 6.8-1.1.7-3.1-4-3.8-5.5-4.2z"></path><path fill="#E05A00" d="M37.4 21.5c.8-3.1-4-3.8-5.5-4.2l-1.3 5.3"></path><path fill="#FFB600" d="M37.8 1.6C24.9-1.6 11.9 6.3 8.7 19.1 5.5 32 13.3 45 26.2 48.2c12.9 3.2 25.9-4.6 29.1-17.5 3.2-12.8-4.6-25.8-17.5-29.1zm4.8 19.9c-.3 2.3-1.6 3.5-3.4 3.9 2.4 1.2 3.6 3.1 2.4 6.4-1.4 4.1-4.8 4.4-9.3 3.6l-1.1 4.4-2.6-.8 1.1-4.3c-.7-.2-1.4-.4-2.1-.5l-1.1 4.3-2.6-.7 1.1-4.4c-.6-.2-1.2-.3-1.9-.5l-3.4-.9 1.3-3 1.9.5c.7.2 1.1-.3 1.2-.6l1.7-6.9c.1 0 .2 0 .3.1-.1 0-.2-.1-.3-.1l1.2-4.9c0-.6-.2-1.3-1.2-1.5l-1.9-.5.7-2.8 3.6.9c.5.1 1.1.3 1.7.4L31 9.3l2.6.7-1.1 4.2c.7.2 1.4.3 2.1.5l1-4.2 2.6.7-1.1 4.3c3.5 1.1 6 2.8 5.5 6z"></path><path fill="#F6921E" d="M8.7 19.1C5.5 32 13.3 45 26.2 48.2c12.9 3.2 25.9-4.6 29.1-17.5 3.2-12.9-4.6-25.9-17.5-29.1m4.8 19.9c-.3 2.3-1.6 3.5-3.4 3.9 2.4 1.2 3.6 3.1 2.4 6.4-1.4 4.1-4.8 4.4-9.3 3.6l-1.1 4.4-2.6-.8 1.1-4.3c-.7-.2-1.4-.4-2.1-.5l-1.1 4.3-2.6-.7 1.1-4.4c-.6-.2-1.2-.3-1.9-.5l-3.4-.9 1.3-3 1.9.5c.7.2 1.1-.3 1.2-.6l1.7-6.9c.1 0 .2 0 .3.1-.1 0-.2-.1-.3-.1l1.2-4.9c0-.6-.2-1.3-1.2-1.5l-1.9-.5.7-2.8 3.6.9c.5.1 1.1.3 1.7.4L31 9.3l2.6.7-1.1 4.2c.7.2 1.4.3 2.1.5l1-4.2 2.6.7-1.1 4.3c3.5 1.1 6 2.8 5.5 6z"></path><path fill="#D85107" d="m55.1 31.6-13-13c.5.8.8 1.8.6 3-.3 2.3-1.6 3.5-3.4 3.9 2.4 1.2 3.6 3.1 2.4 6.4-1.4 4.1-4.8 4.4-9.3 3.6l-1.1 4.4-2.7-.9 1.1-4.3c-.7-.2-1.4-.4-2.1-.5l-1.1 4.3-.6-.2 10.2 10.2c8.8-1.5 16.4-7.9 19-16.9z"></path><path fill="#4D4E4E" d="M13.9 54.3c.5 0 .9.1 1.3.3.4.2.7.4.9.7.2.3.4.7.5 1.1.1.4.2.9.2 1.3 0 .7-.1 1.4-.4 2.1-.3.7-.6 1.2-1.1 1.7-.5.5-1 .9-1.7 1.1-.6.3-1.3.4-2.1.4H11c-.2 0-.5 0-.8-.1-.3 0-.6-.1-1-.2-.3-.1-.7-.2-1-.3l2.7-11.5 2.5-.4-1 4.1c.2-.1.4-.2.6-.2.4 0 .7-.1.9-.1m-2 6.8c.4 0 .7-.1 1-.3.3-.2.6-.4.8-.7.2-.3.4-.6.6-1 .1-.4.2-.8.2-1.2 0-.5-.1-.9-.3-1.2-.2-.3-.5-.4-.9-.4-.1 0-.3 0-.6.1-.2.1-.5.2-.6.3l-1 4.3h.5c0 .1.1.1.3.1zM19.4 62.8H17l2-8.3h2.4l-2 8.3m1.2-9.3c-.3 0-.6-.1-.9-.3-.3-.2-.4-.5-.4-.9 0-.2 0-.4.1-.6.1-.2.2-.4.4-.5.1-.1.3-.3.5-.3.2-.1.4-.1.6-.1.3 0 .6.1.9.3.3.2.4.5.4.9 0 .2 0 .4-.1.6-.1.2-.2.4-.4.5-.1.1-.3.3-.5.3s-.4.1-.6.1zM23.5 52.4 26 52l-.6 2.5H28l-.5 1.9h-2.6l-.7 2.9c-.1.2-.1.5-.1.7 0 .2 0 .4.1.5.1.2.2.3.3.4.2.1.4.1.7.1.3 0 .5 0 .7-.1.2 0 .5-.1.7-.2l.2 1.8c-.3.1-.7.2-1 .3-.4.2-.8.2-1.3.2-.7 0-1.3-.1-1.7-.3-.4-.2-.7-.5-.9-.9-.2-.4-.2-.8-.2-1.3s.1-1 .2-1.5l1.6-6.6M27.9 59.5c0-.7.1-1.4.4-2 .2-.6.6-1.2 1-1.7s1-.8 1.6-1.1c.6-.3 1.3-.4 2.1-.4.5 0 .9 0 1.3.1s.7.2 1 .4l-.8 1.8c-.2-.1-.4-.2-.7-.2-.2-.1-.5-.1-.8-.1-.8 0-1.4.3-1.9.8s-.7 1.3-.7 2.2c0 .5.1 1 .4 1.3.2.3.7.5 1.3.5.3 0 .6 0 .9-.1.3-.1.5-.1.8-.2l.2 1.9c-.3.1-.6.2-1 .3-.4.1-.8.1-1.3.1-.7 0-1.2-.1-1.7-.3-.5-.2-.8-.4-1.1-.8-.3-.3-.5-.7-.6-1.1-.4-.5-.4-.9-.4-1.4M38.3 63.1c-.6 0-1-.1-1.5-.3-.4-.2-.8-.4-1-.7-.3-.3-.5-.7-.6-1.1-.1-.4-.2-.9-.2-1.4 0-.6.1-1.3.3-1.9.2-.6.5-1.2.9-1.7s.9-.9 1.5-1.2c.6-.3 1.2-.5 2-.5.6 0 1 .1 1.5.3.4.2.8.4 1 .7.3.3.5.7.6 1.1.1.4.2.9.2 1.4 0 .6-.1 1.3-.3 1.9-.2.6-.5 1.2-.9 1.7s-.9.9-1.5 1.2-1.2.5-2 .5m1.2-6.8c-.3 0-.7.1-.9.3-.3.2-.5.5-.7.8-.2.3-.3.6-.4 1-.1.4-.1.7-.1 1 0 .5.1.9.3 1.2.2.3.5.4.9.4s.7-.1.9-.3c.3-.2.5-.5.7-.8.2-.3.3-.6.4-1 .1-.4.1-.7.1-1 0-.5-.1-.9-.3-1.2-.2-.3-.5-.4-.9-.4zM45.6 62.8h-2.4l2-8.3h2.4l-2 8.3m1.1-9.3c-.3 0-.6-.1-.9-.3-.3-.2-.4-.5-.4-.9 0-.2 0-.4.1-.6.1-.2.2-.4.4-.5.1-.1.3-.3.5-.3.2-.1.4-.1.6-.1.3 0 .6.1.9.3.3.2.4.5.4.9 0 .2 0 .4-.1.6-.1.2-.2.4-.4.5-.1.1-.3.3-.5.3s-.4.1-.6.1zM49.3 54.9c.2-.1.4-.1.6-.2.2-.1.5-.1.7-.2.3-.1.6-.1.9-.1.3 0 .7-.1 1.1-.1 1.2 0 2.1.4 2.6 1.1.5.7.6 1.7.2 3l-1.1 4.5H52l1-4.4c.1-.3.1-.5.2-.8V57c0-.2-.1-.4-.3-.5-.2-.1-.4-.2-.7-.2-.3 0-.6 0-.9.1l-1.5 6.5h-2.4l1.9-8"></path><path fill="#E26600" d="m19.7 32.1 4.5 4.5.8-3.2c-.6-.2-1.2-.3-1.9-.5l-3.4-.8zM37.7 14.2l-.4 1.3c1.2.4 2.3.9 3.2 1.5l-2.8-2.8z"></path><path fill="#ED6C0C" d="m33.7 10-1.1 4.2c.7.2 1.4.3 2.1.5l.7-3-1.7-1.7zM38.4 11.1l-1.1 4.3.1.1c3 1 5.3 2.6 5.3 5.3l12 12c.2-.7.4-1.4.6-2 .2-.8.3-1.5.4-2.3L38.4 11.1zM40.7 47.3l-9.1-9.1-.4 1.5-2.6-.7.8-3.1-1.8-1.8-1.1 4.3-2.6-.7v-.1l-.1.1 10.9 10.9c2.1-.1 4.1-.6 6-1.3z"></path><path fill="#E05A00" d="M43.2 46.1 32.4 35.3h-.1l-1.1 4.4-2.5-.6 9.1 9.1c1.9-.5 3.7-1.2 5.4-2.1z"></path></svg>