<svg xmlns="http://www.w3.org/2000/svg" viewBox="0 0 512 512" id="cost"><path fill="#837683" fill-rule="evenodd" d="M53.465 26.18h260.258c25.006 0 45.466 20.46 45.466 45.466v332.378c0 25.007-20.46 45.466-45.466 45.466H53.465c-25.007 0-45.466-20.46-45.466-45.466V71.646c0-25.006 20.459-45.466 45.466-45.466z" clip-rule="evenodd"></path><path fill="#685e68" fill-rule="evenodd" d="M287.672 26.18h26.051c25.007 0 45.466 20.46 45.466 45.467v332.377c0 25.007-20.459 45.466-45.466 45.466h-26.051c25.006 0 45.466-20.459 45.466-45.466V71.647c0-25.007-20.459-45.467-45.466-45.467z" clip-rule="evenodd"></path><path fill="#ffe177" fill-rule="evenodd" d="M68.621 91.44h229.947c5.757 0 10.452 4.695 10.452 10.452v41.025c0 5.757-4.695 10.452-10.452 10.452H68.621c-5.757 0-10.452-4.695-10.452-10.452v-41.025c0-5.757 4.695-10.452 10.452-10.452z" clip-rule="evenodd"></path><path fill="#ffd064" fill-rule="evenodd" d="M295.994 91.44h2.573c5.757 0 10.452 4.695 10.452 10.452v41.025c0 5.757-4.695 10.452-10.452 10.452H68.621c-5.757 0-10.452-4.695-10.452-10.452v-2.573h227.373c5.757 0 10.452-4.695 10.452-10.452V91.44z" clip-rule="evenodd"></path><path fill="#eceff1" fill-rule="evenodd" d="M78.224 203.147h39.065c5.757 0 10.452 4.695 10.452 10.452v13.588c0 5.757-4.695 10.452-10.452 10.452H78.224c-5.757 0-10.452-4.695-10.452-10.452v-13.588c0-5.757 4.695-10.452 10.452-10.452zM249.9 349.738h39.065c5.757 0 10.452 4.695 10.452 10.452v13.588c0 5.757-4.695 10.452-10.452 10.452H249.9c-5.757 0-10.452-4.695-10.452-10.452V360.19c-.001-5.756 4.695-10.452 10.452-10.452zm-85.839 0h39.065c5.757 0 10.452 4.695 10.452 10.452v13.588c0 5.757-4.695 10.452-10.452 10.452h-39.065c-5.757 0-10.452-4.695-10.452-10.452V360.19c.001-5.756 4.696-10.452 10.452-10.452zm-85.837 0h39.065c5.757 0 10.452 4.695 10.452 10.452v13.588c0 5.757-4.695 10.452-10.452 10.452H78.224c-5.757 0-10.452-4.695-10.452-10.452V360.19c0-5.756 4.695-10.452 10.452-10.452zM249.9 276.443h39.065c5.757 0 10.452 4.695 10.452 10.452v13.588c0 5.757-4.695 10.452-10.452 10.452H249.9c-5.757 0-10.452-4.695-10.452-10.452v-13.588c-.001-5.757 4.695-10.452 10.452-10.452zm-85.839 0h39.065c5.757 0 10.452 4.695 10.452 10.452v13.588c0 5.757-4.695 10.452-10.452 10.452h-39.065c-5.757 0-10.452-4.695-10.452-10.452v-13.588c.001-5.757 4.696-10.452 10.452-10.452zm-85.837 0h39.065c5.757 0 10.452 4.695 10.452 10.452v13.588c0 5.757-4.695 10.452-10.452 10.452H78.224c-5.757 0-10.452-4.695-10.452-10.452v-13.588c0-5.757 4.695-10.452 10.452-10.452zM249.9 203.147h39.065c5.757 0 10.452 4.695 10.452 10.452v13.588c0 5.757-4.695 10.452-10.452 10.452H249.9c-5.757 0-10.452-4.695-10.452-10.452v-13.588c-.001-5.757 4.695-10.452 10.452-10.452zm-85.839 0h39.065c5.757 0 10.452 4.695 10.452 10.452v13.588c0 5.757-4.695 10.452-10.452 10.452h-39.065c-5.757 0-10.452-4.695-10.452-10.452v-13.588c.001-5.757 4.696-10.452 10.452-10.452z" clip-rule="evenodd"></path><path fill="#d1d1d6" fill-rule="evenodd" d="M119.035 203.295c4.931.836 8.706 5.143 8.706 10.305v13.588c0 5.757-4.695 10.452-10.452 10.452H78.224c-4.573 0-8.476-2.963-9.887-7.068.568.096 1.151.147 1.746.147h39.065c5.757 0 10.452-4.695 10.452-10.452v-13.588c0-1.184-.2-2.322-.565-3.384zm171.676 146.591c4.931.835 8.706 5.143 8.706 10.305v13.588c0 5.757-4.695 10.452-10.452 10.452H249.9c-4.573 0-8.476-2.963-9.887-7.067.568.096 1.151.147 1.746.147h39.065c5.757 0 10.452-4.695 10.452-10.452V353.27c0-1.183-.2-2.322-.565-3.384zm-85.838 0c4.93.835 8.705 5.143 8.705 10.305v13.588c0 5.757-4.695 10.452-10.452 10.452h-39.065c-4.573 0-8.475-2.963-9.887-7.067.568.096 1.151.147 1.746.147h39.065c5.757 0 10.452-4.695 10.452-10.452V353.27a10.37 10.37 0 0 0-.564-3.384zm-85.838 0c4.931.835 8.706 5.143 8.706 10.305v13.588c0 5.757-4.695 10.452-10.452 10.452H78.224c-4.573 0-8.476-2.963-9.887-7.067.568.096 1.151.147 1.746.147h39.065c5.757 0 10.452-4.695 10.452-10.452V353.27c0-1.183-.2-2.322-.565-3.384zm171.676-73.296c4.931.835 8.706 5.143 8.706 10.305v13.588c0 5.757-4.695 10.452-10.452 10.452H249.9c-4.573 0-8.476-2.963-9.887-7.067.568.096 1.151.147 1.746.147h39.065c5.757 0 10.452-4.695 10.452-10.452v-13.589c0-1.183-.2-2.322-.565-3.384zm-85.838 0c4.93.835 8.705 5.143 8.705 10.305v13.588c0 5.757-4.695 10.452-10.452 10.452h-39.065c-4.573 0-8.475-2.962-9.887-7.067.568.096 1.151.147 1.746.147h39.065c5.757 0 10.452-4.695 10.452-10.452v-13.589a10.37 10.37 0 0 0-.564-3.384zm-85.838 0c4.931.835 8.706 5.143 8.706 10.305v13.588c0 5.757-4.695 10.452-10.452 10.452H78.224c-4.573 0-8.476-2.963-9.887-7.067.568.096 1.151.147 1.746.147h39.065c5.757 0 10.452-4.695 10.452-10.452v-13.589c0-1.183-.2-2.322-.565-3.384zm171.676-73.295c4.931.835 8.706 5.143 8.706 10.305v13.588c0 5.757-4.695 10.452-10.452 10.452H249.9c-4.573 0-8.476-2.963-9.887-7.068.568.096 1.151.147 1.746.147h39.065c5.757 0 10.452-4.695 10.452-10.452v-13.588c0-1.184-.2-2.322-.565-3.384zm-85.838 0c4.93.835 8.705 5.143 8.705 10.305v13.588c0 5.757-4.695 10.452-10.452 10.452h-39.065c-4.573 0-8.475-2.963-9.887-7.068.568.096 1.151.147 1.746.147h39.065c5.757 0 10.452-4.695 10.452-10.452v-13.588a10.365 10.365 0 0 0-.564-3.384z" clip-rule="evenodd"></path><path fill="#ffd064" fill-rule="evenodd" d="M483.682 263.602c11.176 0 20.319 9.143 20.319 20.318v14.917c0 11.175-9.143 20.319-20.319 20.319 11.176 0 20.319 9.143 20.319 20.319v14.917c0 11.176-9.143 20.319-20.319 20.319 11.176 0 20.319 9.143 20.319 20.319v14.917c0 11.175-9.143 20.319-20.319 20.319 11.176 0 20.319 9.143 20.319 20.319v14.917c0 11.176-9.143 20.319-20.319 20.319H355.973c-11.175 0-20.318-9.143-20.318-20.319v-14.917c0-11.176 9.143-20.319 20.318-20.319-11.175 0-20.318-9.143-20.318-20.319V395.03c0-11.176 9.143-20.319 20.318-20.319-11.175 0-20.318-9.143-20.318-20.319v-14.917c0-11.176 9.143-20.319 20.318-20.319-11.175 0-20.318-9.143-20.318-20.319V283.92c0-11.175 9.143-20.318 20.318-20.318-11.175 0-20.318-9.143-20.318-20.319v-14.917c0-11.176 9.143-20.319 20.318-20.319h127.709c11.176 0 20.319 9.143 20.319 20.319v14.917c0 11.176-9.143 20.319-20.319 20.319z" clip-rule="evenodd"></path><path fill="#ffc338" fill-rule="evenodd" d="M483.682 263.602c11.176 0 20.319 9.143 20.319 20.318v14.917c0 11.175-9.143 20.319-20.319 20.319 11.176 0 20.319 9.143 20.319 20.319v14.917c0 11.176-9.143 20.319-20.319 20.319 11.176 0 20.319 9.143 20.319 20.319v14.917c0 11.175-9.143 20.319-20.319 20.319 11.176 0 20.319 9.143 20.319 20.319v14.917c0 11.176-9.143 20.319-20.319 20.319h-10c11.176 0 20.319-9.143 20.319-20.319v-14.917c0-11.176-9.143-20.319-20.319-20.319 11.176 0 20.319-9.143 20.319-20.319V395.03c0-11.176-9.143-20.319-20.319-20.319 11.176 0 20.319-9.143 20.319-20.319v-14.917c0-11.176-9.143-20.319-20.319-20.319 11.176 0 20.319-9.143 20.319-20.319V283.92c0-11.175-9.143-20.318-20.319-20.318 11.176 0 20.319-9.143 20.319-20.319v-14.917c0-11.176-9.143-20.319-20.319-20.319h10c11.176 0 20.319 9.143 20.319 20.319v14.917c0 11.176-9.143 20.319-20.319 20.319z" clip-rule="evenodd"></path><path fill="#ffe177" fill-rule="evenodd" d="M355.973 263.602h127.709c11.176 0 20.319-9.143 20.319-20.319v-14.917c0-11.176-9.143-20.319-20.319-20.319H355.973c-11.175 0-20.318 9.143-20.318 20.319v14.917c0 11.176 9.143 20.319 20.318 20.319zm0 222.218h127.709c11.176 0 20.319-9.143 20.319-20.319v-14.917c0-11.176-9.143-20.319-20.319-20.319H355.973c-11.175 0-20.318 9.143-20.318 20.319v14.917c0 11.176 9.143 20.319 20.318 20.319zm0-111.109h127.709c11.176 0 20.319-9.143 20.319-20.319v-14.917c0-11.176-9.143-20.319-20.319-20.319H355.973c-11.175 0-20.318 9.143-20.318 20.319v14.917c0 11.176 9.143 20.319 20.318 20.319z" clip-rule="evenodd"></path><path fill="#ffd064" fill-rule="evenodd" d="M473.682 263.602h10c11.176 0 20.319-9.143 20.319-20.319v-14.917c0-11.176-9.143-20.319-20.319-20.319h-10c11.176 0 20.319 9.143 20.319 20.319v14.917c0 11.176-9.144 20.319-20.319 20.319zm0 222.218h10c11.176 0 20.319-9.143 20.319-20.319v-14.917c0-11.176-9.143-20.319-20.319-20.319h-10c11.176 0 20.319 9.143 20.319 20.319v14.917c0 11.176-9.144 20.319-20.319 20.319zm0-111.109h10c11.176 0 20.319-9.143 20.319-20.319v-14.917c0-11.176-9.143-20.319-20.319-20.319h-10c11.176 0 20.319 9.143 20.319 20.319v14.917c0 11.176-9.144 20.319-20.319 20.319z" clip-rule="evenodd"></path></svg>