<svg xmlns="http://www.w3.org/2000/svg" xmlns:xlink="http://www.w3.org/1999/xlink" data-name="Layer 1" viewBox="0 0 512 512" id="crowdfunding"><defs><linearGradient id="a" x1="256" x2="256" y1="29.768" y2="465.649" gradientUnits="userSpaceOnUse"><stop offset="0" stop-color="#00efd1"></stop><stop offset="1" stop-color="#00acea"></stop></linearGradient><linearGradient id="b" x1="256" x2="256" y1="29.768" y2="465.649" xlink:href="#a"></linearGradient><linearGradient id="c" x1="256.5" x2="256.5" y1="29.768" y2="465.649" xlink:href="#a"></linearGradient><linearGradient id="d" x1="439.616" x2="439.616" y1="29.768" y2="465.649" xlink:href="#a"></linearGradient><linearGradient id="e" x1="440" x2="440" y1="29.768" y2="465.649" xlink:href="#a"></linearGradient><linearGradient id="f" x1="72.384" x2="72.384" y1="29.768" y2="465.649" xlink:href="#a"></linearGradient><linearGradient id="g" x1="72" x2="72" y1="29.768" y2="465.649" xlink:href="#a"></linearGradient><linearGradient id="h" x1="147.429" x2="147.429" y1="29.768" y2="465.649" xlink:href="#a"></linearGradient><linearGradient id="i" x1="364.13" x2="364.13" y1="29.768" y2="465.649" xlink:href="#a"></linearGradient><linearGradient id="j" x1="367.728" x2="367.728" y1="29.768" y2="465.649" xlink:href="#a"></linearGradient><linearGradient id="k" x1="143.663" x2="143.663" y1="29.768" y2="465.649" xlink:href="#a"></linearGradient></defs><path fill="url(#a)" d="M221.718,379.493A34.282,34.282,0,1,0,256,345.211,34.32,34.32,0,0,0,221.718,379.493Zm54.563,0A20.282,20.282,0,1,1,256,359.211,20.3,20.3,0,0,1,276.281,379.493Z"></path><path fill="url(#b)" d="M282.386,411h0a6.9,6.9,0,0,0-5.641,2.751,25.468,25.468,0,0,1-5.5,5.448,25.756,25.756,0,0,1-35.984-5.422,6.926,6.926,0,0,0-5.64-2.777h0A31.472,31.472,0,0,0,198,442.344v48.2c0,3.866,3.208,7.458,7.074,7.458H306.926c3.866,0,7.074-3.592,7.074-7.458v-48.2A31.472,31.472,0,0,0,282.386,411ZM300,484H212V442.344a17.617,17.617,0,0,1,14.49-17.279,39.933,39.933,0,0,0,59.009,0A17.624,17.624,0,0,1,300,442.344Z"></path><path fill="url(#c)" d="M365,316V196a7,7,0,0,0-7-7H155a7,7,0,0,0-7,7V316a7,7,0,0,0,7,7H358A7,7,0,0,0,365,316Zm-15-7H162V203H350Z"></path><path fill="url(#b)" d="M176.807,281.55c10.5.17,17.205,5.082,17.552,12.687A7.036,7.036,0,0,0,201.312,301H310.688a7.072,7.072,0,0,0,6.992-6.756c.35-7.5,7.176-12.486,17.512-12.653a6.967,6.967,0,0,0,6.808-7.04v-37.1a6.932,6.932,0,0,0-6.808-7c-10.342-.166-16.95-5.082-17.307-12.695A7.036,7.036,0,0,0,310.933,211H201.312a7.072,7.072,0,0,0-6.992,6.756c-.351,7.5-7.176,12.486-17.513,12.653a6.967,6.967,0,0,0-6.807,7.04v37.1A6.932,6.932,0,0,0,176.807,281.55ZM184,243.783C195,241.674,204.048,235,207.116,225H305.13c2.759,9,9.87,16.609,22.87,18.821v24.4C317,270.326,307.951,277,304.884,287H207.159c-3-10-11.159-16.747-23.159-18.809Z"></path><path fill="url(#b)" d="M256,284.729A28.729,28.729,0,1,0,227.271,256,28.762,28.762,0,0,0,256,284.729Zm0-43.458A14.729,14.729,0,1,1,241.271,256,14.746,14.746,0,0,1,256,241.271Z"></path><path fill="url(#a)" d="M256,83.021A34.282,34.282,0,1,0,221.718,48.74,34.32,34.32,0,0,0,256,83.021Zm0-54.563A20.282,20.282,0,1,1,235.718,48.74,20.3,20.3,0,0,1,256,28.458Z"></path><path fill="url(#b)" d="M205.074,167H306.926A7.246,7.246,0,0,0,314,159.789v-48.2A31.683,31.683,0,0,0,282.386,80h0a7.016,7.016,0,0,0-5.641,2.875,25.719,25.719,0,0,1-41.485,0A7.015,7.015,0,0,0,229.617,80h0A31.683,31.683,0,0,0,198,111.591v48.2A7.246,7.246,0,0,0,205.074,167ZM212,111.591a17.617,17.617,0,0,1,14.487-17.278,39.786,39.786,0,0,0,53.035,5.362,40.065,40.065,0,0,0,5.981-5.363A17.621,17.621,0,0,1,300,111.591V153H212Z"></path><path fill="url(#d)" d="M405.334,214.116a34.282,34.282,0,1,0,34.282-34.282A34.321,34.321,0,0,0,405.334,214.116Zm34.282-20.282a20.282,20.282,0,1,1-20.282,20.282A20.3,20.3,0,0,1,439.616,193.834Z"></path><path fill="url(#e)" d="M466,245h0a7.2,7.2,0,0,0-5.641,3.063,26.234,26.234,0,0,1-5.5,5.6,25.8,25.8,0,0,1-35.985-5.656,7.153,7.153,0,0,0-5.641-3.01h0C395.839,245,382,259.577,382,276.968v48.2A6.6,6.6,0,0,0,388.69,332H490.542c3.866,0,7.458-2.968,7.458-6.834v-48.2A32.338,32.338,0,0,0,466,245Zm18,73H396V276.968a17.449,17.449,0,0,1,14.3-17.279,39.7,39.7,0,0,0,52.929,5.362,41.188,41.188,0,0,0,6.128-5.363A17.753,17.753,0,0,1,484,276.968Z"></path><path fill="url(#f)" d="M72.384,248.4A34.282,34.282,0,1,0,38.1,214.116,34.321,34.321,0,0,0,72.384,248.4Zm0-54.564A20.282,20.282,0,1,1,52.1,214.116,20.306,20.306,0,0,1,72.384,193.834Z"></path><path fill="url(#g)" d="M130,325.166v-48.2C130,259.577,116.162,245,98.771,245h0a7.206,7.206,0,0,0-5.641,3.062,26.2,26.2,0,0,1-5.5,5.6,25.8,25.8,0,0,1-35.984-5.656A7.154,7.154,0,0,0,46,245h0a32.338,32.338,0,0,0-32,31.968v48.2c0,3.866,3.592,6.834,7.458,6.834H123.31A6.6,6.6,0,0,0,130,325.166ZM116,318H28V276.967a17.786,17.786,0,0,1,14.683-17.278A39.947,39.947,0,0,0,95.8,265.051a38.984,38.984,0,0,0,5.841-5.363A17.5,17.5,0,0,1,116,276.968Z"></path><path fill="url(#h)" d="M187.967,406.451a165.008,165.008,0,0,1-72.244-63.388,7,7,0,0,0-11.888,7.4A178.967,178.967,0,0,0,182.19,419.2a7,7,0,0,0,5.777-12.753Z"></path><path fill="url(#i)" d="M407.389,338.17a7,7,0,0,0-9.6,2.415A166.816,166.816,0,0,1,321.677,407.5a7,7,0,1,0,5.576,12.842,180.936,180.936,0,0,0,82.552-72.568A7,7,0,0,0,407.389,338.17Z"></path><path fill="url(#j)" d="M322.253,104.755a165.676,165.676,0,0,1,81.861,78.272,7,7,0,1,0,12.553-6.2,179.687,179.687,0,0,0-88.789-84.9,7,7,0,1,0-5.625,12.82Z"></path><path fill="url(#k)" d="M98.738,185.7a7,7,0,0,0,9.386-3.147A165.877,165.877,0,0,1,188.34,105.38,7,7,0,1,0,182.6,92.613a179.908,179.908,0,0,0-87.005,83.7A7,7,0,0,0,98.738,185.7Z"></path></svg>