<svg xmlns="http://www.w3.org/2000/svg" width="32" height="32" id="globe"><g transform="translate(-355.557 -1472.848)"><path fill="#4bbfeb" fill-rule="evenodd" stroke="#2b4255" d="M364.459 1479.064a12.943 12.943 0 0 1 7.953-2.716c7.18 0 13 5.82 13 13s-5.82 13-13 13-13-5.82-13-13c0-1.599.29-3.13.817-4.545"></path><path fill="none" stroke="#2b4255" d="M364.459 1479.064a12.943 12.943 0 0 1 7.953-2.716c7.18 0 13 5.82 13 13s-5.82 13-13 13-13-5.82-13-13c0-1.599.29-3.13.817-4.545m12.183-8.705v26.219m13.063-12.969h-26m16.869-7h-12.088m19.13 14h-21.88"></path><path fill="none" stroke="#2b4255" d="M371.121 1502.354c-3.457-2.904-5.709-7.647-5.709-13.006 0-5.342 2.238-10.072 5.677-12.978m2.596 25.993c3.529-3.78 5.672-8.863 5.736-13.015m-2.086-8.497c-.933-1.739-2.145-3.253-3.561-4.456"></path><path fill="#e9eded" stroke="#f05542" stroke-linecap="round" stroke-linejoin="round" d="M364.768 1480.732c0 1.869-3.356 5.616-3.356 5.616s-3.355-3.747-3.355-5.616c0-1.869 1.502-3.384 3.355-3.384 1.854 0 3.356 1.515 3.356 3.384z"></path><ellipse cx="361.412" cy="1480.356" fill="#4bbfeb" stroke="#f05542" stroke-linecap="round" stroke-linejoin="round" rx="1.118" ry="1.128"></ellipse><path fill="#e9eded" stroke="#f05542" stroke-linecap="round" stroke-linejoin="round" d="M382.768 1483.732c0 1.869-3.356 5.616-3.356 5.616s-3.355-3.747-3.355-5.616c0-1.869 1.502-3.384 3.355-3.384 1.854 0 3.356 1.515 3.356 3.384z"></path><ellipse cx="379.412" cy="1483.356" fill="#4bbfeb" stroke="#f05542" stroke-linecap="round" stroke-linejoin="round" rx="1.118" ry="1.128"></ellipse></g></svg>