<svg xmlns="http://www.w3.org/2000/svg" data-name="Layer 1" viewBox="0 0 32 32" id="justice"><path fill="#dad9db" d="M5.5,15a.5.5,0,0,1-.5-.5v-6a.5.5,0,0,1,1,0v6A.5.5,0,0,1,5.5,15Z"></path><path fill="#dad9db" d="M.5,23a.494.494,0,0,1-.265-.076.5.5,0,0,1-.159-.688l5-8a.5.5,0,0,1,.848.53l-5,8A.5.5,0,0,1,.5,23Z"></path><path fill="#dad9db" d="M10.5 23a.5.5 0 0 1-.424-.235l-5-8a.5.5 0 0 1 .848-.53l5 8a.5.5 0 0 1-.159.688A.494.494 0 0 1 10.5 23zM26.5 15a.5.5 0 0 1-.5-.5v-6a.5.5 0 0 1 1 0v6A.5.5 0 0 1 26.5 15z"></path><path fill="#dad9db" d="M21.5,23a.494.494,0,0,1-.265-.076.5.5,0,0,1-.159-.688l5-8a.5.5,0,0,1,.848.53l-5,8A.5.5,0,0,1,21.5,23Z"></path><path fill="#dad9db" d="M31.5,23a.5.5,0,0,1-.424-.235l-5-8a.5.5,0,0,1,.848-.53l5,8a.5.5,0,0,1-.159.688A.494.494,0,0,1,31.5,23Z"></path><circle cx="16" cy="2" r="1.5" fill="#afaeb3"></circle><path fill="#afaeb3" d="M17 5.5l10.659.853A2 2 0 0 1 29.5 8.346V8.5H17zM15 5.454L4.333 6.347A2 2 0 0 0 2.5 8.34V8.5H15z"></path><polyline fill="#dad9db" points="17 3.25 17 19.5 15 19.5 15 3.25"></polyline><path fill="#afaeb3" d="M17.5,28.5h-3v-8a1,1,0,0,1,1-1h1a1,1,0,0,1,1,1Z"></path><path fill="#dad9db" d="M22.5,31.5H9.5a2.44,2.44,0,0,1,1.961-2.392L14.5,28.5h3l3.039.608A2.44,2.44,0,0,1,22.5,31.5Z"></path><path fill="#f59831" d="M0 22.25H11a0 0 0 0 1 0 0v.5a5 5 0 0 1-5 5H5a5 5 0 0 1-5-5v-.5A0 0 0 0 1 0 22.25zM21 22.25H32a0 0 0 0 1 0 0v.5a5 5 0 0 1-5 5H26a5 5 0 0 1-5-5v-.5A0 0 0 0 1 21 22.25z"></path></svg>