<svg xmlns="http://www.w3.org/2000/svg" enable-background="new 0 0 100 100" viewBox="0 0 100 100" id="network"><path d="M86.3,66.8C88.5,65,90,62.1,90,59c0-5.5-4.5-10-10-10s-10,4.5-10,10c0,3.1,1.5,6,3.7,7.8c-3.2,2-5.4,5.3-5.7,9.3L52,64V51h8
	c1.1,0,2-0.9,2-2V35c0-4.3-2.3-8.1-5.7-10.2C58.5,23,60,20.1,60,17c0-5.5-4.5-10-10-10s-10,4.5-10,10c0,3.1,1.5,6,3.7,7.8
	C40.3,26.9,38,30.7,38,35v14c0,1.1,0.9,2,2,2h8v13L32,76c-0.3-3.9-2.5-7.3-5.7-9.3C28.5,65,30,62.1,30,59c0-5.5-4.5-10-10-10
	s-10,4.5-10,10c0,3.1,1.5,6,3.7,7.8C10.3,68.9,8,72.7,8,77v14c0,1.1,0.9,2,2,2h20c1.1,0,2-0.9,2-2V81l18-13.5L68,81v10
	c0,1.1,0.9,2,2,2h20c1.1,0,2-0.9,2-2V77C92,72.7,89.7,68.9,86.3,66.8z M20,53c3.3,0,6,2.7,6,6s-2.7,6-6,6s-6-2.7-6-6S16.7,53,20,53z
	 M28,89H12V77c0-4.4,3.6-8,8-8s8,3.6,8,8V89z M50,11c3.3,0,6,2.7,6,6s-2.7,6-6,6s-6-2.7-6-6S46.7,11,50,11z M42,47V35
	c0-4.4,3.6-8,8-8s8,3.6,8,8v12H42z M80,53c3.3,0,6,2.7,6,6s-2.7,6-6,6s-6-2.7-6-6S76.7,53,80,53z M88,89H72V77c0-4.4,3.6-8,8-8
	s8,3.6,8,8V89z"></path></svg>