<svg xmlns="http://www.w3.org/2000/svg" xmlns:xlink="http://www.w3.org/1999/xlink" width="42" height="42" id="protection"><defs><linearGradient id="b" x1="1073.403" x2="1097.116" y1="516.451" y2="544.308" gradientTransform="translate(-1438.388 316.47) scale(1.34562)" gradientUnits="userSpaceOnUse" xlink:href="#a"></linearGradient><linearGradient id="a"><stop offset="0" stop-color="#16ff6a"></stop><stop offset="1" stop-color="#0090a5"></stop></linearGradient></defs><g transform="translate(0 -1010.362)"><rect width="42" height="42" y="1010.362" fill="url(#b)" rx="8.876" ry="8.876"></rect><path style="line-height:normal;text-indent:0;text-align:start;text-decoration-line:none;text-decoration-style:solid;text-decoration-color:#000;text-transform:none;block-progression:tb;isolation:auto;mix-blend-mode:normal" fill="#fff" d="M14.205 1017.354a.5.5 0 0 0-.5.5c0 .753-.394 1.564-1.01 2.176-.616.612-1.434 1.006-2.195 1.006a.5.5 0 0 0-.5.5v13.955c0 2.731 2.275 5.15 4.71 6.928a21.489 21.489 0 0 0 3.602 2.126c1.016.467 1.842.752 2.506.791a.5.5 0 0 0 .373 0c.654-.056 1.48-.345 2.497-.814a21.95 21.95 0 0 0 3.601-2.123c2.435-1.773 4.711-4.177 4.711-6.908v-13.955a.5.5 0 0 0-.5-.5c-.76 0-1.58-.394-2.195-1.006-.616-.612-1.01-1.423-1.01-2.176a.5.5 0 0 0-.5-.5H21.04a.5.5 0 0 0-.041 0h-6.795zm.385 1h5.91v12.5H11v-8.934a4.304 4.304 0 0 0 2.4-1.18 4.265 4.265 0 0 0 1.19-2.386zm6.91 0h5.91c.137.894.54 1.741 1.19 2.387a4.304 4.304 0 0 0 2.4 1.18v8.933h-9.5v-12.5zm-10.5 13.5h9.5v12.414a9.997 9.997 0 0 1-1.77-.633 20.577 20.577 0 0 1-3.43-2.025c-2.317-1.692-4.3-3.969-4.3-6.12v-3.636zm10.5 0H31v3.637c0 2.15-1.98 4.411-4.299 6.096a21.026 21.026 0 0 1-3.433 2.023 10.65 10.65 0 0 1-1.768.648v-12.404z" color="#000" font-family="sans-serif" font-weight="400" overflow="visible"></path></g></svg>