<svg xmlns="http://www.w3.org/2000/svg" viewBox="0 0 100 100" id="several-streams-of-income"><g data-name="ICON 25"><path d="M50 38.72a9.21 9.21 0 1 0-9.21-9.21A9.22 9.22 0 0 0 50 38.72zM50 22.3a7.21 7.21 0 1 1-7.21 7.21A7.21 7.21 0 0 1 50 22.3zM54.92 42.81h-.08a.77.77 0 0 0-.26-.12 1.92 1.92 0 0 0-.24 0h-.07a20.29 20.29 0 0 0-5.11-.42 18.93 18.93 0 0 0-3.43.42h-.07a1.92 1.92 0 0 0-.24 0 .77.77 0 0 0-.26.12H45.1c-8.86 2.21-14.2 10.67-14.2 23v6.29a1 1 0 0 0 1 1H68.1a1 1 0 0 0 1-1V65.32c0-7.71-2.34-14.22-6.59-18.32A16.63 16.63 0 0 0 54.92 42.81zm3 7.58l-3.57 4.08a1 1 0 0 0-.06 1.24l2.27 3.17L51.5 62.52l3.63-17.58h0a2.78 2.78 0 0 1 .38.12h0zM45.62 54.47l-3.57-4.08 2.43-5.34h0c.12 0 .25-.08.38-.12h0L48.5 62.52l-5.09-3.64 2.27-3.17A1 1 0 0 0 45.62 54.47zm3.61-10.24a19.45 19.45 0 0 1 4 .25L50 59.88l-3.18-15.4A17 17 0 0 1 49.23 44.23zM67.1 71.14H60.78V66a1 1 0 0 0-2 0v5.18H41.22V66a1 1 0 0 0-2 0v5.18H32.9V65.85c0-9.52 3.2-16.39 8.83-19.59h0L40 50.15a1 1 0 0 0 .16 1.07l3.47 4L41.2 58.54a1 1 0 0 0 .23 1.39l8 5.7h0l0 0 0 0 .09 0 .08 0h.08l0 0 .2 0h0l.2 0 0 0h.08l.08 0 .09 0 0 0 0 0h0l8-5.7a1 1 0 0 0 .23-1.39l-2.39-3.35 3.47-4A1 1 0 0 0 60 50.15L58.29 46.3h0a14.14 14.14 0 0 1 2.83 2.14c3.86 3.72 6 9.71 6 16.88z"></path><path d="M50 67.1a1.14 1.14 0 1 0 1.14 1.14A1.14 1.14 0 0 0 50 67.1zM15.67 14h2.61a.31.31 0 0 1 .31.3 1 1 0 1 0 2 0A2.31 2.31 0 0 0 18.28 12H18v-.78a1 1 0 0 0-2 0V12h-.32a2.3 2.3 0 0 0-2.3 2.3v2A1.65 1.65 0 0 0 15 17.94h3.57v1.61a.3.3 0 0 1-.31.3H15.81a.3.3 0 0 1-.31-.3 1 1 0 1 0-2 0 2.31 2.31 0 0 0 2.31 2.3H16V22a1 1 0 0 0 2 0v-.19h.29a2.31 2.31 0 0 0 2.31-2.3v-2a1.66 1.66 0 0 0-1.66-1.65H15.37V14.33A.31.31 0 0 1 15.67 14z"></path><path d="M17,7.16A9.81,9.81,0,1,0,26.81,17,9.83,9.83,0,0,0,17,7.16Zm0,17.62A7.81,7.81,0,1,1,24.81,17,7.82,7.82,0,0,1,17,24.78Z"></path><path d="M17 3.17a13.8 13.8 0 0 0-1 27.57h0V43.45a1 1 0 0 0 1 1H23.4l-.59.59a1 1 0 0 0 .7 1.7 1 1 0 0 0 .71-.29l2.3-2.3 0 0a.81.81 0 0 0 .19-.29h0v0a.87.87 0 0 0 .06-.32v-.1a1.11 1.11 0 0 0-.05-.25.36.36 0 0 0 0-.09 1 1 0 0 0-.19-.3l-2.3-2.3a1 1 0 0 0-1.41 0 1 1 0 0 0 0 1.42l.59.59H18V30.74A13.8 13.8 0 0 0 17 3.17zm0 25.61h0A11.81 11.81 0 1 1 28.81 17 11.83 11.83 0 0 1 17 28.78zM15.67 80.09h2.61a.3.3 0 0 1 .31.3 1 1 0 0 0 2 0 2.31 2.31 0 0 0-2.31-2.3H18V77.3a1 1 0 0 0-2 0v.79h-.32a2.3 2.3 0 0 0-2.3 2.3v2A1.65 1.65 0 0 0 15 84h3.57v1.61a.3.3 0 0 1-.31.3H15.81a.3.3 0 0 1-.31-.3 1 1 0 0 0-2 0 2.31 2.31 0 0 0 2.31 2.3H16v.19a1 1 0 0 0 2 0v-.19h.29a2.31 2.31 0 0 0 2.31-2.3v-2A1.66 1.66 0 0 0 18.93 82H15.37V80.39A.3.3 0 0 1 15.67 80.09z"></path><path d="M17,73.22A9.81,9.81,0,1,0,26.81,83,9.83,9.83,0,0,0,17,73.22Zm0,17.62A7.81,7.81,0,1,1,24.81,83,7.83,7.83,0,0,1,17,90.84Z"></path><path d="M18 69.26V57.55H23.4l-.59.59a1 1 0 0 0 0 1.42 1 1 0 0 0 1.41 0l2.3-2.3a1 1 0 0 0 .19-.3.36.36 0 0 0 0-.09 1.11 1.11 0 0 0 .05-.25v-.1a.87.87 0 0 0-.06-.32v0h0a.81.81 0 0 0-.19-.29l0 0-2.3-2.3A1 1 0 1 0 22.81 55l.59.59H17a1 1 0 0 0-1 1V69.26h0a13.82 13.82 0 1 0 2 0zM17 94.83a11.81 11.81 0 1 1 0-23.61h0a11.81 11.81 0 1 1 0 23.61zM81 17.94H84.6v1.61a.29.29 0 0 1-.3.3H81.83a.3.3 0 0 1-.31-.3 1 1 0 1 0-2 0 2.31 2.31 0 0 0 2.31 2.3H82V22a1 1 0 1 0 2 0v-.19h.29a2.3 2.3 0 0 0 2.3-2.3v-2A1.65 1.65 0 0 0 85 15.94H81.39V14.33a.31.31 0 0 1 .3-.3H84.3a.3.3 0 0 1 .3.3 1 1 0 0 0 2 0A2.3 2.3 0 0 0 84.3 12H84v-.78a1 1 0 0 0-2 0V12h-.32a2.3 2.3 0 0 0-2.3 2.3v2A1.65 1.65 0 0 0 81 17.94z"></path><path d="M83,26.78A9.81,9.81,0,1,0,73.19,17,9.83,9.83,0,0,0,83,26.78ZM83,9.16A7.81,7.81,0,1,1,75.19,17,7.83,7.83,0,0,1,83,9.16Z"></path><path d="M82 30.74V42.45H76.6l.59-.59a1 1 0 0 0 0-1.42 1 1 0 0 0-1.41 0l-2.3 2.3a1 1 0 0 0-.19.3.36.36 0 0 0 0 .09 1.11 1.11 0 0 0 0 .25v.1a.87.87 0 0 0 .06.32v0h0a.81.81 0 0 0 .19.29l0 0 2.3 2.3a1 1 0 0 0 1.41 0 1 1 0 0 0 0-1.41l-.59-.59H83a1 1 0 0 0 1-1V30.74h0a13.82 13.82 0 1 0-2 0zM83 5.17a11.81 11.81 0 1 1 0 23.61h0A11.81 11.81 0 1 1 83 5.17zM81.69 80.09H84.3a.29.29 0 0 1 .3.3 1 1 0 1 0 2 0 2.3 2.3 0 0 0-2.3-2.3H84V77.3a1 1 0 0 0-2 0v.79h-.32a2.3 2.3 0 0 0-2.3 2.3v2A1.65 1.65 0 0 0 81 84H84.6v1.61a.29.29 0 0 1-.3.3H81.83a.3.3 0 0 1-.31-.3 1 1 0 0 0-2 0 2.31 2.31 0 0 0 2.31 2.3H82v.19a1 1 0 0 0 2 0v-.19h.29a2.3 2.3 0 0 0 2.3-2.3v-2A1.65 1.65 0 0 0 85 82H81.39V80.39A.3.3 0 0 1 81.69 80.09z"></path><path d="M83,73.22A9.81,9.81,0,1,0,92.83,83,9.82,9.82,0,0,0,83,73.22Zm0,17.62A7.81,7.81,0,1,1,90.83,83,7.83,7.83,0,0,1,83,90.84Z"></path><path d="M84,69.26h0V56.55a1,1,0,0,0-1-1H76.6l.59-.59a1,1,0,1,0-1.41-1.41l-2.3,2.3,0,0a.81.81,0,0,0-.19.29h0v0a.87.87,0,0,0-.06.32v.1a1.11,1.11,0,0,0,0,.25.36.36,0,0,0,0,.09,1,1,0,0,0,.19.3l2.3,2.3a1,1,0,0,0,1.41,0,1,1,0,0,0,0-1.42l-.59-.59H82V69.26a13.82,13.82,0,1,0,2,0ZM83,94.83a11.81,11.81,0,1,1,0-23.61h0a11.81,11.81,0,1,1,0,23.61Z"></path></g></svg>