<svg xmlns="http://www.w3.org/2000/svg" width="24" height="24" viewBox="0 0 24 24" id="tips"><g stroke-width=".772" transform="translate(-857.561 -13.714) scale(1.29584)"><path fill="#5500d4" d="m 671.03807,10.583355 c -5.17205,-0.008 -9.25759,1.726339 -9.25759,9.2604 0,7.524773 4.084,9.259761 9.26041,9.260405 5.17641,-6.44e-4 9.26041,-1.735632 9.26041,-9.260405 0,-7.534061 -4.08554,-9.268362 -9.25755,-9.2604 h -0.003 z"></path><path fill="#fdfb85" d="m 671.09276,14.187167 c 0.079,0.114808 0.10628,0.29548 0.0943,0.584998 -0.0209,0.503768 -0.18227,0.617813 -0.257,0.487519 -0.10052,-0.175267 -0.16939,-0.347435 -0.12445,-0.64361 0.0449,-0.296166 0.15384,-0.622884 0.28719,-0.428907 z"></path><path fill="#fc0" d="m 671.02509,15.776362 c -1.82615,0 -3.3065,1.480347 -3.3065,3.306506 0,2.677853 0.9681,3.935617 2.30629,4.317069 v 1.911199 c 0,0 0.66177,0.247825 1.00293,0.247608 0.34115,-2.18e-4 0.99696,-0.247608 0.99696,-0.247608 v -1.91392 c 1.33185,-0.384489 2.29279,-1.642437 2.30683,-4.314348 0.01,-1.826133 -1.48035,-3.306506 -3.30651,-3.306506 z"></path><path fill="#fdfb85" d="M672.11557 18.8698c-.18228.577153-.52161.90484-1.09591 1.095913-.9993.332469-1.31077-.530073-1.09591-1.095913.289-.761136.58916-1.329873 1.19442-1.329874.60526.000001 1.30525.355208.9974 1.329874zM672.73593 20.079722c-.0911.288578-.2608.452421-.54796.547957-.49965.166234-.65538-.265036-.54796-.547957.1445-.380567.29458-.664937.59722-.664937.30262 0 .65262.177605.4987.664937z"></path><path fill="#fdfb4b" d="M670.02488 25.311136c0 0 .10181.04954.6113-.141528.5095-.191061 1.02607-.714713 1.02607-.714713-.43123.197926-.70988.441439-1.14122.581121-.43135.139682-.49615.02037-.49615.02037zM670.02488 24.065519c0 0 .10181.04954.6113-.141528.5095-.191062 1.02607-.714714 1.02607-.714714-.43123.197927-.70988.44144-1.14122.581122-.43135.139682-.49615.02037-.49615.02037zM672.02478 23.77016c0 0-.10181-.04954-.61131.141528-.50951.191062-1.02607.714714-1.02607.714714.43123-.197927.70987-.441439 1.14122-.581121.43135-.139682.49615-.02037.49615-.02037z"></path><path fill="#fdfb85" d="M673.07846 14.395377c.0466.131341.0262.312921-.0603.589462-.15055.481198-.33595.549586-.37442.404392-.0518-.195314-.0737-.379438.0464-.65389.12006-.274445.30982-.561843.38841-.339964zM669.00331 14.397857c-.0466.131341-.0262.312921.0603.589462.15055.481198.33596.549586.37442.404392.0518-.195314.0737-.379437-.0464-.653889-.12006-.274445-.30982-.561844-.38841-.339965zM674.55657 15.376386c.0109.138916-.0557.309037-.21085.553761-.26997.425835-.46676.443907-.46633.293705.00054-.20206.0271-.38558.21405-.619602.187-.234021.44467-.462513.46317-.227853zM667.52521 15.378866c-.011.138916.0557.309037.21084.553761.26997.425835.46676.443907.46633.293705-.00054-.20206-.027-.38558-.21405-.619602-.187-.234021-.44467-.462512-.46317-.227853z"></path></g></svg>